<svg xmlns="http://www.w3.org/2000/svg" width="19" height="19" viewBox="0 0 19 19" fill="none">
  <g clip-path="url(#clip0_1_234)">
    <path d="M15.0514 4.94296H7.54069V8.69833C7.54069 9.11141 7.20271 9.4494 6.78962 9.4494C6.37653 9.4494 6.03854 9.11141 6.03854 8.69833V3.44081H9.79391C10.207 3.44081 10.545 3.10283 10.545 2.68974V1.1876C10.545 0.774506 10.207 0.436523 9.79391 0.436523H5.28747C4.87438 0.436523 4.5364 0.774506 4.5364 1.1876V4.94296H3.03425C2.20807 4.94296 1.5321 5.61893 1.5321 6.44511V15.458C1.5321 16.2842 2.20807 16.9601 3.03425 16.9601H15.0514C15.8776 16.9601 16.5536 16.2842 16.5536 15.458V6.44511C16.5536 5.61893 15.8776 4.94296 15.0514 4.94296Z" fill="#828282"/>
  </g>
  <defs>
    <clipPath id="clip0_1_234">
      <rect width="18.0257" height="18.0257" fill="white" transform="translate(0.0299683 0.436523)"/>
    </clipPath>
  </defs>
</svg>