<svg xmlns="http://www.w3.org/2000/svg" width="19" height="19" viewBox="0 0 19 19" fill="none">
<path d="M9.02574 1.62761C4.87982 1.62761 1.51501 4.99242 1.51501 9.13834C1.51501 13.2843 4.87982 16.6491 9.02574 16.6491C13.1717 16.6491 16.5365 13.2843 16.5365 9.13834C16.5365 4.99242 13.1717 1.62761 9.02574 1.62761ZM9.02574 3.88083C10.2725 3.88083 11.279 4.88727 11.279 6.13405C11.279 7.38083 10.2725 8.38727 9.02574 8.38727C7.77896 8.38727 6.77253 7.38083 6.77253 6.13405C6.77253 4.88727 7.77896 3.88083 9.02574 3.88083ZM9.02574 14.5461C7.14806 14.5461 5.48819 13.5847 4.51931 12.1276C4.54184 10.633 7.5236 9.8143 9.02574 9.8143C10.5204 9.8143 13.5097 10.633 13.5322 12.1276C12.5633 13.5847 10.9034 14.5461 9.02574 14.5461Z" fill="#828282"/>
</svg>