<svg xmlns="http://www.w3.org/2000/svg" width="19" height="19" viewBox="0 0 19 19" fill="none">
  <path d="M14.9582 11.6615L13.0504 11.4437C12.5923 11.3911 12.1416 11.5489 11.8187 11.8718L10.4367 13.2538C8.31117 12.1723 6.56868 10.4373 5.48714 8.30424L6.87662 6.91475C7.19958 6.59179 7.35731 6.14115 7.30473 5.68299L7.08692 3.79029C6.99679 3.03171 6.35838 2.46089 5.59229 2.46089H4.29293C3.44422 2.46089 2.73821 3.1669 2.79078 4.01561C3.18885 10.4298 8.31868 15.5521 14.7253 15.9502C15.574 16.0027 16.2801 15.2967 16.2801 14.448V13.1487C16.2876 12.3901 15.7167 11.7517 14.9582 11.6615Z" fill="#828282"/>
</svg>