<svg xmlns="http://www.w3.org/2000/svg" width="18" height="20" viewBox="0 0 18 20" fill="none">
  <g clip-path="url(#clip0_1_237)">
    <path d="M15 3.18217H3C2.175 3.18217 1.5075 3.89467 1.5075 4.76551L1.5 14.2655C1.5 15.1363 2.175 15.8488 3 15.8488H15C15.825 15.8488 16.5 15.1363 16.5 14.2655V4.76551C16.5 3.89467 15.825 3.18217 15 3.18217ZM14.7 6.54676L9.3975 10.0459C9.1575 10.2043 8.8425 10.2043 8.6025 10.0459L3.3 6.54676C3.1125 6.42009 3 6.20634 3 5.97676C3 5.44634 3.5475 5.12967 3.975 5.40676L9 8.72384L14.025 5.40676C14.4525 5.12967 15 5.44634 15 5.97676C15 6.20634 14.8875 6.42009 14.7 6.54676Z" fill="#828282"/>
  </g>
  <defs>
    <clipPath id="clip0_1_237">
      <rect width="18" height="19" fill="white" transform="translate(0 0.0155029)"/>
    </clipPath>
  </defs>
</svg>