<svg xmlns="http://www.w3.org/2000/svg" width="19" height="19" viewBox="0 0 19 19" fill="none">
  <path d="M11.7811 8.35007V4.46703C11.7811 4.06896 11.6234 3.68591 11.338 3.40802L10.0537 2.12368C9.76074 1.83076 9.28756 1.83076 8.99464 2.12368L7.71782 3.4005C7.43241 3.68591 7.27469 4.06896 7.27469 4.46703V5.34578H4.2704C3.44422 5.34578 2.76825 6.02175 2.76825 6.84793V14.3587C2.76825 15.1848 3.44422 15.8608 4.2704 15.8608H14.7854C15.6116 15.8608 16.2876 15.1848 16.2876 14.3587V9.85222C16.2876 9.02604 15.6116 8.35007 14.7854 8.35007H11.7811ZM5.77254 14.3587H4.2704V12.8565H5.77254V14.3587ZM5.77254 11.3544H4.2704V9.85222H5.77254V11.3544ZM5.77254 8.35007H4.2704V6.84793H5.77254V8.35007ZM10.279 14.3587H8.77683V12.8565H10.279V14.3587ZM10.279 11.3544H8.77683V9.85222H10.279V11.3544ZM10.279 8.35007H8.77683V6.84793H10.279V8.35007ZM10.279 5.34578H8.77683V3.84364H10.279V5.34578ZM14.7854 14.3587H13.2833V12.8565H14.7854V14.3587ZM14.7854 11.3544H13.2833V9.85222H14.7854V11.3544Z" fill="#828282"/>
</svg>